<svg width="106" height="103" viewBox="0 0 106 103" fill="none" xmlns="http://www.w3.org/2000/svg">
<path d="M31.8539 102.022C37.6787 102.535 44.5442 102.711 52.6394 102.711C99.481 102.711 105.265 97.0619 105.265 51.3555C105.265 16.2175 101.846 4.75714 78.9929 1.33795C72.114 0.297321 63.4781 0 52.6394 0C5.78426 0 0 5.64911 0 51.3555C0 89.1694 3.95978 99.5621 31.8539 102.022Z" fill="url(#paint0_linear_528_747)"/>
<path opacity="0.3" d="M93.6022 6.29696C91.4804 49.8545 71.3301 80.9246 40.5168 102.629C35.0839 102.44 30.3673 102.089 26.2724 101.467C3.4192 98.0477 0 86.5873 0 51.4493C0 5.74286 5.78425 0.09375 52.6259 0.09375C60.7211 0.09375 67.5866 0.26944 73.4114 0.782995C82.4121 1.58036 88.9126 3.20211 93.6022 6.29696Z" fill="url(#paint1_linear_528_747)"/>
<g filter="url(#filter0_d_528_747)">
<path d="M38.7198 28.317L38.7468 46.8726C38.7468 48.2511 39.5712 49.4944 40.8551 50.035L56.3834 56.5626C57.0997 56.8734 57.5727 57.5626 57.5727 58.3465V67.185C57.5592 67.8473 57.2213 68.4554 56.6672 68.8068C56.3564 69.0095 55.9915 69.1176 55.6266 69.1176C55.3563 69.1176 55.086 69.0636 54.8292 68.9419L32.422 58.779C29.3001 56.9274 27.354 53.5082 27.3405 49.8593L27.3135 26.0871C27.3135 23.3031 28.3811 20.6948 30.3543 18.7216C32.3139 16.7485 34.9222 15.6673 37.7062 15.6538L72.2496 15.6133C73.601 15.6133 74.4524 17.0458 73.8173 18.2351L69.5872 26.0871C69.2763 26.6682 68.6817 27.0196 68.0195 27.0196L39.9632 27.0602C39.2739 27.0602 38.7063 27.6278 38.7063 28.317H38.7198Z" fill="white"/>
<path d="M66.5467 73.6971L66.5196 55.1415C66.5196 53.763 65.6953 52.5197 64.4114 51.9791L48.8831 45.4516C48.1668 45.1407 47.6938 44.4515 47.6938 43.6676V34.8291C47.7073 34.1669 48.0452 33.5587 48.5993 33.2073C48.9101 33.0046 49.275 32.8965 49.6399 32.8965C49.9102 32.8965 50.1805 32.9505 50.4373 33.0722L72.8445 43.2352C75.9664 45.0867 77.9125 48.5059 77.926 52.1548L77.953 75.927C77.953 78.711 76.8854 81.3193 74.9122 83.2925C72.9526 85.2656 70.3443 86.3468 67.5603 86.3603L33.0169 86.4008C31.6655 86.4008 30.814 84.9683 31.4492 83.779L35.6793 75.927C35.9901 75.3459 36.5848 74.9945 37.247 74.9945L65.3033 74.954C65.9926 74.954 66.5602 74.3863 66.5602 73.6971H66.5467Z" fill="white"/>
</g>
<defs>
<filter id="filter0_d_528_747" x="26.3135" y="14.6133" width="58.6396" height="78.7871" filterUnits="userSpaceOnUse" color-interpolation-filters="sRGB">
<feFlood flood-opacity="0" result="BackgroundImageFix"/>
<feColorMatrix in="SourceAlpha" type="matrix" values="0 0 0 0 0 0 0 0 0 0 0 0 0 0 0 0 0 0 127 0" result="hardAlpha"/>
<feOffset dx="3" dy="3"/>
<feGaussianBlur stdDeviation="2"/>
<feColorMatrix type="matrix" values="0 0 0 0 0 0 0 0 0 0 0 0 0 0 0 0 0 0 0.25 0"/>
<feBlend mode="normal" in2="BackgroundImageFix" result="effect1_dropShadow_528_747"/>
<feBlend mode="normal" in="SourceGraphic" in2="effect1_dropShadow_528_747" result="shape"/>
</filter>
<linearGradient id="paint0_linear_528_747" x1="5.05446" y1="95.9402" x2="100.805" y2="6.21672" gradientUnits="userSpaceOnUse">
<stop offset="0.05" stop-color="#0061D4"/>
<stop offset="0.35" stop-color="#00C0DB"/>
<stop offset="0.69" stop-color="#00E78B"/>
<stop offset="0.99" stop-color="#00FFAA"/>
</linearGradient>
<linearGradient id="paint1_linear_528_747" x1="11.1496" y1="6.62131" x2="95.6564" y2="98.8315" gradientUnits="userSpaceOnUse">
<stop stop-color="white"/>
<stop offset="0.14" stop-color="#FBFBFB"/>
<stop offset="0.26" stop-color="#F0F0F0"/>
<stop offset="0.38" stop-color="#DEDEDE"/>
<stop offset="0.49" stop-color="#C5C5C5"/>
<stop offset="0.59" stop-color="#A5A5A5"/>
<stop offset="0.7" stop-color="#7D7D7D"/>
<stop offset="0.75" stop-color="#666666"/>
</linearGradient>
</defs>
</svg>
